<?xml version="1.0" encoding="iso-8859-1"?>
<!-- Generator: Adobe Illustrator 19.1.0, SVG Export Plug-In . SVG Version: 6.00 Build 0)  -->
<svg xmlns="http://www.w3.org/2000/svg" xmlns:xlink="http://www.w3.org/1999/xlink" version="1.1" id="Capa_1" x="0px" y="0px" viewBox="0 0 194.665 194.665" style="enable-background:new 0 0 194.665 194.665;" xml:space="preserve" width="512px" height="512px">
<g>
	<g>
		<g>
			<g>
				<path d="M181.035,139.351h-33.463c-4.037,0-7.32-3.778-7.32-8.422s3.284-8.422,7.32-8.422h33.463      c4.041,0,7.327,3.778,7.327,8.422S185.075,139.351,181.035,139.351z M147.572,124.106c-3.154,0-5.721,3.061-5.721,6.823      s2.566,6.823,5.721,6.823h33.463c3.158,0,5.728-3.061,5.728-6.823s-2.569-6.823-5.728-6.823H147.572z" fill="#FFFFFF"/>
			</g>
			<path d="M20.028,124.964c-7.568,0-13.725-6.225-13.725-13.877v-61.45c0-7.65,6.157-13.874,13.725-13.874     c7.564,0,13.718,6.224,13.718,13.874v11.747h21.007c3.18-6.208,8.254-11.413,14.367-14.735v-6.724     c0-6.688,3.927-12.605,10.052-15.226v-10.05h-16.8c-2.847,0-5.162-2.526-5.162-5.632c0-3.106,2.315-5.634,5.162-5.634h14.25     C77.074,1.435,78.818,0,80.88,0h9.616c2.059,0,3.806,1.435,4.265,3.382h13.965c2.85,0,5.169,2.527,5.169,5.634     c0,3.105-2.319,5.632-5.169,5.632H91.627v9.818c6.386,2.454,10.636,8.594,10.636,15.458v6.735     c6.144,3.344,11.235,8.593,14.414,14.86c31.036,0.724,46.624,4.539,55.534,13.57c9.19,9.315,11.012,24.247,11.158,48.543     c0.001,0.214-0.083,0.419-0.234,0.57c-0.15,0.15-0.354,0.234-0.566,0.234c-0.001,0-0.003,0-0.004,0l-36.193-0.205     c-0.441-0.002-0.797-0.361-0.795-0.803l0.007-1.845c0.044-10.159,0.067-15.258-3.037-17.818     c-3.195-2.635-9.942-3.023-23.383-3.794l-1.521-0.087c-2.314,0.185-4.476,0.428-6.275,0.707     c-6.589,7.244-15.935,11.392-25.688,11.392c-9.641,0-18.596-3.873-25.246-10.912c-4.552-1.032-11.685-1.417-14.575-1.536     l-12.112,0v11.55C33.746,118.739,27.592,124.964,20.028,124.964z M20.028,37.362c-6.686,0-12.125,5.506-12.125,12.274v61.45     c0,6.77,5.439,12.278,12.125,12.278c6.682,0,12.118-5.508,12.118-12.278v-12.35c0-0.442,0.358-0.8,0.8-0.8H45.89     c3.02,0.123,10.471,0.528,15.144,1.632c0.154,0.036,0.293,0.117,0.401,0.233c6.361,6.824,14.971,10.582,24.244,10.582     c9.394,0,18.392-4.036,24.688-11.072c0.123-0.137,0.288-0.228,0.469-0.257c1.908-0.306,4.237-0.572,6.734-0.77     c0.036-0.003,0.072-0.003,0.109-0.001l1.576,0.091c27.498,1.579,28.023,1.608,27.929,23.217l-0.004,1.045l34.584,0.196     c-0.354-46.458-7.098-58.426-65.604-59.725c-0.299-0.007-0.569-0.18-0.701-0.448c-3.084-6.303-8.187-11.564-14.366-14.813     c-0.263-0.138-0.428-0.411-0.428-0.708v-7.215c0-6.372-4.058-12.056-10.098-14.142c-0.322-0.112-0.539-0.415-0.539-0.756V13.848     c0-0.442,0.358-0.8,0.8-0.8h17.898c1.968,0,3.569-1.809,3.569-4.032c0-2.224-1.601-4.034-3.569-4.034H94.072     c-0.424,0-0.774-0.33-0.799-0.753C93.187,2.755,91.967,1.6,90.496,1.6H80.88c-1.472,0-2.688,1.154-2.77,2.626     c-0.023,0.424-0.374,0.756-0.799,0.756h-14.94c-1.964,0-3.562,1.81-3.562,4.034c0,2.223,1.598,4.032,3.562,4.032h17.6     c0.442,0,0.8,0.358,0.8,0.8v11.387c0,0.33-0.202,0.625-0.509,0.745c-5.797,2.263-9.543,7.736-9.543,13.943v7.204     c0,0.297-0.165,0.57-0.428,0.708c-6.154,3.231-11.242,8.452-14.328,14.701c-0.135,0.273-0.413,0.446-0.717,0.446h-22.3     c-0.442,0-0.8-0.358-0.8-0.8V49.637C32.146,42.869,26.709,37.362,20.028,37.362z" fill="#FFFFFF"/>
			<g>
				<path d="M169.312,97.923c-0.324,0-0.628-0.198-0.749-0.52c-4.285-11.425-8.304-19.031-24.476-20.599      c-0.44-0.043-0.762-0.434-0.719-0.874c0.043-0.44,0.431-0.758,0.874-0.719c17.057,1.654,21.46,10.008,25.819,21.63      c0.155,0.414-0.054,0.875-0.468,1.03C169.501,97.907,169.406,97.923,169.312,97.923z" fill="#FFFFFF"/>
			</g>
			<g>
				<path d="M165.483,194.665c-7.084-0.003-12.847-5.768-12.847-12.85c0-8.505,11.651-29.624,12.147-30.519      c0.142-0.255,0.381-0.392,0.705-0.412c0.292,0.001,0.561,0.163,0.699,0.42c0.496,0.92,12.143,22.614,12.143,30.501      C178.33,188.893,172.567,194.662,165.483,194.665z M165.474,153.38c-2.569,4.799-11.238,21.505-11.238,28.435      c0,6.2,5.046,11.247,11.248,11.25c6.201-0.003,11.247-5.054,11.247-11.26C176.73,175.384,168.028,158.265,165.474,153.38z" fill="#FFFFFF"/>
			</g>
		</g>
	</g>
</g>
<g>
</g>
<g>
</g>
<g>
</g>
<g>
</g>
<g>
</g>
<g>
</g>
<g>
</g>
<g>
</g>
<g>
</g>
<g>
</g>
<g>
</g>
<g>
</g>
<g>
</g>
<g>
</g>
<g>
</g>
</svg>
